<?xml version="1.0" encoding="utf-8"?>

<!DOCTYPE svg PUBLIC "-//W3C//DTD SVG 1.1//EN" "http://www.w3.org/Graphics/SVG/1.1/DTD/svg11.dtd">
<svg version="1.1" id="Layer_1" xmlns="http://www.w3.org/2000/svg" xmlns:xlink="http://www.w3.org/1999/xlink" x="0px" y="0px"
	 viewBox="0 0 2608.929 1260.043" enable-background="new 0 0 2608.929 1260.043" xml:space="preserve">
<g>
	<path d="M1304.464,23.481C597.54,23.481,24.464,630.021,24.464,630.021s573.075,606.541,1279.999,606.541
		c706.925,0,1280.001-606.541,1280.001-606.541S2011.389,23.481,1304.464,23.481z M1304.464,1161.14
		c-293.329,0-531.118-237.79-531.118-531.119s237.789-531.119,531.118-531.119s531.12,237.79,531.12,531.119
		S1597.793,1161.14,1304.464,1161.14z"/>
	<path d="M1304.464,203.175c-235.74,0-426.846,191.106-426.846,426.846s191.106,426.846,426.846,426.846
		s426.846-191.105,426.846-426.846S1540.205,203.175,1304.464,203.175z M1304.464,841.005
		c-116.523,0-210.984-94.461-210.984-210.984s94.461-210.984,210.984-210.984c116.523,0,210.984,94.461,210.984,210.984
		S1420.988,841.005,1304.464,841.005z"/>
</g>
</svg>
